<svg xmlns="http://www.w3.org/2000/svg" viewBox="0 0 24.52 16.68"><defs><style>.cls-1{fill:#fff;}</style></defs><title>Ativo 2</title><g id="Camada_2" data-name="Camada 2"><g id="Layer_1" data-name="Layer 1"><path class="cls-1" d="M24.52,7.2,19.61,9.56l0-6.2-4.15,3.8-3.08-7L12.26,0h0L9.1,7.16,5,3.36l0,6.2L0,7.2l5,9.47,7.23-3.35,7.26,3.36ZM24,7.76l-4.31,8.16,0-6.08ZM4.88,15.92.58,7.76,4.91,9.84Zm14.45-12,0,5.75L17,10.79,15.53,7.4Zm-2.52,7L14.5,12l-2.05-1.79,2.89-2.64ZM12.18.8h0l.08-.19.09.2h0l2.88,6.53-3,2.72-3-2.72Zm-3,6.78,2.89,2.64L10,12,7.72,10.9Zm-4-3.65L9,7.4l-1.5,3.39L5.17,9.68Zm0,6L7.39,11,5.13,16.14Zm2.45,1.17,2.21,1.06L5.47,16ZM5.76,16.05l4.3-3.75,1.9.88Zm4.51-3.93,1.91-1.66h0l.08-.08.09.08h0l1.9,1.66-2,.93Zm2.29,1.06,1.9-.88,4.3,3.75Zm2.14-1,2.21-1.06L19.05,16ZM17.13,11,19.36,10l0,6.18Z"/></g></g></svg>