<svg xmlns="http://www.w3.org/2000/svg" viewBox="0 0 204.29 75.53"><defs><style>.cls-1{fill:#fff;}</style></defs><title>Ativo 1</title><g id="Camada_2" data-name="Camada 2"><g id="Layer_1" data-name="Layer 1"><path class="cls-1" d="M15.06,52.94H2.31v-.31h.43A1.76,1.76,0,0,0,4.56,51V36.07a1.7,1.7,0,0,0-1.81-1.64H2.32v-.31h9.17a13.74,13.74,0,0,0,3.5-.49v3.55h-.34v-.48a1.56,1.56,0,0,0-1.57-1.61H6.56v8h5.36a1.22,1.22,0,0,0,1.27-1.33v-.4h.35v4.41h-.35v-.4A1.21,1.21,0,0,0,12,44H6.56v8h4.91c3,0,4.09-1.51,5-3.54h.34Z"/><path class="cls-1" d="M37.6,34.12v.31h-.52A1.71,1.71,0,0,0,35.34,36V49.38a31.53,31.53,0,0,0,.29,4h-.3L19,37.9V51a1.71,1.71,0,0,0,1.74,1.64h.53v.31H15.36v-.31h.53A1.7,1.7,0,0,0,17.63,51V37.57a26.19,26.19,0,0,0-.3-3.92h.34L34,49V36a1.71,1.71,0,0,0-1.74-1.57h-.53v-.31Z"/><path class="cls-1" d="M49.72,52.94H37v-.31h.43A1.76,1.76,0,0,0,39.22,51V36.07a1.7,1.7,0,0,0-1.81-1.64H37v-.31h9.17a13.74,13.74,0,0,0,3.5-.49v3.55H49.3v-.48a1.56,1.56,0,0,0-1.57-1.61H41.22v8h5.36a1.22,1.22,0,0,0,1.27-1.33v-.4h.35v4.41h-.35v-.4A1.21,1.21,0,0,0,46.66,44H41.22v8h4.91c3,0,4.09-1.51,5-3.54h.34Z"/><path class="cls-1" d="M58.2,34.12c3.95,0,6.37,1.91,6.37,5.08a5.25,5.25,0,0,1-4.87,5.16,8.69,8.69,0,0,1,2.41,2.46s1.45,2,2.75,3.42,2.15,2.37,3.89,2.39v.31h-1a6.67,6.67,0,0,1-5.83-2.76c-.35-.43-2.83-4-3.07-4.3-.85-1.06-1.94-2.11-3.18-2.11v-.29s.77,0,1.8,0c1.73,0,3.71-.06,4.61-2.7A5.43,5.43,0,0,0,62.32,39c-.07-2.35-1.65-3.73-4.17-3.86-1.77-.09-3.31,0-3.61,0V50.93a1.74,1.74,0,0,0,1.78,1.7h.42v.31H50.33v-.31h.42A1.75,1.75,0,0,0,52.55,51V36.06a1.71,1.71,0,0,0-1.79-1.63h-.42v-.31Z"/><path class="cls-1" d="M84.52,49.34a11.4,11.4,0,0,1-8.93,4c-6.2,0-10.29-3.77-10.29-9.85s4.1-9.85,10.28-9.85a13.36,13.36,0,0,1,7.32,1.9L83.59,40h-.27c-.91-3.67-3.38-5.39-7.77-5.39-4.79,0-8,3.38-8,8.91s3.21,8.91,8,8.91a9.45,9.45,0,0,0,6.89-2.72l0-4.17c0-.79-.54-1.23-1.46-1.23h-.44V44h5.75v.32H86c-.92,0-1.43.44-1.43,1.24Z"/><path class="cls-1" d="M103.8,34.12v.31h-.4a3.75,3.75,0,0,0-2.88,1.6l-6,9.13v5.77a1.79,1.79,0,0,0,1.82,1.7h.37v.31H90.27v-.31h.36a1.79,1.79,0,0,0,1.82-1.7V45.12L86.65,36a3.43,3.43,0,0,0-2.87-1.58h-.39v-.31h7.28v.31h-.36a1.1,1.1,0,0,0-1.07,1.5l4.56,8.13L98.67,36a1.09,1.09,0,0,0-1.07-1.53h-.36v-.31Z"/><path class="cls-1" d="M112.69,34.12c2.26,0,6.53.52,6.53,4.69a4.35,4.35,0,0,1-3.45,3.89c3,.37,5.27,2.45,5.27,5,0,4.1-3.89,5.27-7,5.27h-7.77v-.31h.37a1.81,1.81,0,0,0,1.88-1.69V36.11a1.75,1.75,0,0,0-1.88-1.68h-.37v-.31ZM114,52c2.7,0,4.75-1.34,4.75-4.33,0-4-3.9-4.67-7.28-4.67v-.32c2.28,0,5.51-.42,5.51-3.87,0-2.63-1.62-3.75-4.37-3.75h-2.13V52Z"/><path class="cls-1" d="M128.58,34.12c4,0,6.38,1.91,6.38,5.08a5.25,5.25,0,0,1-4.88,5.16,8.58,8.58,0,0,1,2.42,2.46s1.45,2,2.74,3.42,2.16,2.37,3.9,2.39v.31h-1a6.65,6.65,0,0,1-5.82-2.76c-.36-.43-2.83-4-3.08-4.3-.85-1.06-1.94-2.11-3.18-2.11v-.29s.78,0,1.8,0c1.74,0,3.71-.06,4.61-2.7A5.43,5.43,0,0,0,132.7,39c-.06-2.35-1.64-3.73-4.17-3.86-1.76-.09-3.31,0-3.61,0V50.93a1.75,1.75,0,0,0,1.79,1.7h.42v.31h-6.42v-.31h.42A1.74,1.74,0,0,0,122.93,51V36.06a1.7,1.7,0,0,0-1.78-1.63h-.42v-.31Z"/><path class="cls-1" d="M156.85,43.53c0,5.83-4.73,9.85-10.58,9.85s-10.59-4-10.59-9.85,4.74-9.85,10.59-9.85S156.85,37.7,156.85,43.53Zm-2.32,0c0-5.31-3.65-8.91-8.26-8.91S138,38.22,138,43.53s3.64,8.91,8.26,8.91S154.53,48.83,154.53,43.53Z"/><path class="cls-1" d="M160.42,51a1.8,1.8,0,0,0,1.85,1.68h.36v.31H156.2v-.31h.37a1.79,1.79,0,0,0,1.84-1.7V36.13a1.78,1.78,0,0,0-1.84-1.7h-.37v-.31h6.44v.31h-.36a1.8,1.8,0,0,0-1.85,1.65Zm11,.39a3.21,3.21,0,0,0,2.75,1.28v.32H173a6.06,6.06,0,0,1-4.61-1.78l-6.88-7.57,6.74-8c.46-.55,0-1.22-.68-1.22h-.28v-.3h6.37v.3h-.12a4.34,4.34,0,0,0-3,1.14l-6.84,7.31Z"/><path class="cls-1" d="M185.06,52.94H172.32v-.31h.43A1.76,1.76,0,0,0,174.57,51V36.07a1.71,1.71,0,0,0-1.82-1.64h-.43v-.31h9.16a13.83,13.83,0,0,0,3.51-.49v3.55h-.34v-.48a1.56,1.56,0,0,0-1.58-1.61h-6.5v8h5.36a1.22,1.22,0,0,0,1.27-1.33v-.4h.34v4.41h-.34v-.4A1.21,1.21,0,0,0,182,44h-5.43v8h4.9c3,0,4.09-1.51,5-3.54h.34Z"/><path class="cls-1" d="M193.54,34.12c4,0,6.38,1.91,6.38,5.08A5.25,5.25,0,0,1,195,44.36a8.58,8.58,0,0,1,2.42,2.46s1.45,2,2.74,3.42,2.16,2.37,3.9,2.39v.31h-1a6.65,6.65,0,0,1-5.82-2.76c-.36-.43-2.83-4-3.08-4.3-.85-1.06-1.94-2.11-3.18-2.11v-.29s.78,0,1.8,0c1.74,0,3.71-.06,4.61-2.7a5.43,5.43,0,0,0,.22-1.79c-.06-2.35-1.64-3.73-4.17-3.86-1.76-.09-3.31,0-3.61,0V50.93a1.75,1.75,0,0,0,1.79,1.7h.42v.31h-6.42v-.31h.42A1.74,1.74,0,0,0,187.89,51V36.06a1.7,1.7,0,0,0-1.78-1.63h-.42v-.31Z"/><path class="cls-1" d="M5.71,73.06l-.09,1.27a3,3,0,0,1-2.56,1.2,2.92,2.92,0,1,1,0-5.83,4.37,4.37,0,0,1,2.17.56l.21,1.31H5.36A2.09,2.09,0,0,0,3.06,70a2.64,2.64,0,0,0,0,5.26,2.27,2.27,0,0,0,2.57-2.18Z"/><path class="cls-1" d="M17,72.61a3,3,0,0,1-3.13,2.92,2.92,2.92,0,1,1,0-5.83A3,3,0,0,1,17,72.61Zm-.69,0a2.45,2.45,0,1,0-2.44,2.64A2.47,2.47,0,0,0,16.33,72.61Z"/><path class="cls-1" d="M28.36,69.83v.09h-.15a.51.51,0,0,0-.52.47v4a9,9,0,0,0,.09,1.19h-.09L22.87,71v3.87a.49.49,0,0,0,.51.48h.16v.1H21.78v-.1h.15a.51.51,0,0,0,.52-.48v-4a7.75,7.75,0,0,0-.09-1.16h.1l4.81,4.53V70.39a.51.51,0,0,0-.51-.47h-.16v-.09Z"/><path class="cls-1" d="M36.08,73a1.29,1.29,0,0,1,.42,1,1.56,1.56,0,0,1-1.64,1.5,2.72,2.72,0,0,1-1.6-.44,2.47,2.47,0,0,1,.09-1.15h.11a1.15,1.15,0,0,0,1.3,1.31c.76,0,1.23-.42,1.23-1a.91.91,0,0,0-.34-.73L33.8,72.06a1.32,1.32,0,0,1-.45-1,1.44,1.44,0,0,1,1.54-1.35,4,4,0,0,1,.92.09h.31v1H36c0-.52-.34-.83-1.07-.83a1,1,0,0,0-1.11.89.88.88,0,0,0,.36.73Z"/><path class="cls-1" d="M47.21,69.83v.09h-.14a.43.43,0,0,0-.45.39v3.13a2,2,0,0,1-2.31,2.09A2,2,0,0,1,42,73.45V70.32a.43.43,0,0,0-.45-.4h-.13v-.09h1.76v.09H43a.43.43,0,0,0-.45.4v3a1.7,1.7,0,0,0,1.72,1.94,1.72,1.72,0,0,0,1.89-1.83V70.32a.42.42,0,0,0-.44-.4h-.14v-.09Z"/><path class="cls-1" d="M56.35,74.07l-.51,1.33H52.07v-.1h.13a.51.51,0,0,0,.53-.49V70.43a.53.53,0,0,0-.55-.51h-.11v-.09H54v.09h-.11a.53.53,0,0,0-.55.5v4.69h1.45a1.43,1.43,0,0,0,1.47-1Z"/><path class="cls-1" d="M63.75,69.82a3.63,3.63,0,0,0,1-.15v1h-.1v-.14a.46.46,0,0,0-.46-.48H62.54v4.71a.52.52,0,0,0,.54.49h.11v.1H61.28v-.1h.11a.52.52,0,0,0,.54-.5V70.1H60.25a.46.46,0,0,0-.46.48v.14h-.1v-1a3.63,3.63,0,0,0,1,.15Z"/><path class="cls-1" d="M75.39,72.61a3.14,3.14,0,1,1-3.13-2.91A3,3,0,0,1,75.39,72.61Zm-.68,0a2.45,2.45,0,1,0-2.45,2.64A2.47,2.47,0,0,0,74.71,72.61Z"/><path class="cls-1" d="M82.57,69.83c1.17,0,1.89.57,1.89,1.5A1.55,1.55,0,0,1,83,72.86a2.61,2.61,0,0,1,.71.73s.43.58.81,1,.64.7,1.16.7v.1h-.3a2,2,0,0,1-1.72-.82c-.1-.13-.83-1.18-.91-1.27a1.34,1.34,0,0,0-.94-.63V72.6h.53c.52,0,1.1,0,1.37-.79a1.65,1.65,0,0,0,.06-.53,1.14,1.14,0,0,0-1.23-1.14c-.52,0-1,0-1.07,0V74.8a.51.51,0,0,0,.53.5h.13v.1h-1.9v-.1h.13a.5.5,0,0,0,.52-.49v-4.4a.5.5,0,0,0-.52-.49h-.13v-.09Z"/><path class="cls-1" d="M90.1,75.4v-.1h.12a.57.57,0,0,0,.63-.5V70.43a.58.58,0,0,0-.63-.51H90.1v-.09h2.1v.09h-.13a.6.6,0,0,0-.63.49v4.4a.59.59,0,0,0,.63.49h.13v.1Z"/><path class="cls-1" d="M102.15,74.76a.84.84,0,0,0,.71.54h.07v.1H101v-.1h.07a.38.38,0,0,0,.33-.55l-.51-1.24H98.58l-.51,1.21a.38.38,0,0,0,.31.58h.08v.1H96.69v-.1h.07a.84.84,0,0,0,.73-.53l1.92-4.11a5.21,5.21,0,0,0,.36-1h.09Zm-1.34-1.52-1-2.54-1.08,2.54Z"/><path class="cls-1" d="M117.55,75.4h-3.77v-.1h.13a.51.51,0,0,0,.53-.49v-4.4a.5.5,0,0,0-.53-.49h-.13v-.09h2.71a3.65,3.65,0,0,0,1-.15v1h-.1v-.14a.47.47,0,0,0-.47-.48H115v2.36h1.58a.35.35,0,0,0,.38-.39V72h.1v1.3H117v-.11a.37.37,0,0,0-.36-.4H115v2.36h1.45a1.43,1.43,0,0,0,1.47-1h.1Z"/><path class="cls-1" d="M129.67,74.8a.61.61,0,0,0,.64.5h.13v.1h-1.92v-.09h.13A.33.33,0,0,0,129,75l-.49-3.82-1.74,3.45a4.35,4.35,0,0,0-.33,1h-.09l-2.24-4.31L123.69,75a.34.34,0,0,0,.34.36h.13v.09h-1.72v-.1h.14a.6.6,0,0,0,.63-.52l.72-5.08H124l2.45,4.71,2.37-4.71h.09Z"/><path class="cls-1" d="M144.26,73a1.36,1.36,0,0,1,.42,1,1.57,1.57,0,0,1-1.65,1.5,2.72,2.72,0,0,1-1.6-.44,2.63,2.63,0,0,1,.1-1.15h.1a1.15,1.15,0,0,0,1.3,1.31c.77,0,1.24-.42,1.24-1a.91.91,0,0,0-.34-.73L142,72.06a1.34,1.34,0,0,1-.44-1,1.44,1.44,0,0,1,1.53-1.35,3.83,3.83,0,0,1,.92.09h.31l0,1h-.11c0-.52-.34-.83-1.07-.83a1,1,0,0,0-1.12.89.92.92,0,0,0,.37.73Z"/><path class="cls-1" d="M153.49,75.4h-3.77v-.1h.13a.52.52,0,0,0,.54-.49v-4.4a.51.51,0,0,0-.54-.49h-.13v-.09h2.71a3.65,3.65,0,0,0,1-.15v1h-.1v-.14a.47.47,0,0,0-.47-.48H151v2.36h1.58a.35.35,0,0,0,.38-.39V72h.1v1.3h-.1v-.11a.37.37,0,0,0-.36-.4H151v2.36h1.45a1.43,1.43,0,0,0,1.47-1h.1Z"/><path class="cls-1" d="M164.46,74.33a3.38,3.38,0,0,1-2.65,1.2,2.92,2.92,0,1,1,0-5.83,4,4,0,0,1,2.17.56l.2,1.31h-.08A2,2,0,0,0,161.8,70a2.65,2.65,0,0,0,0,5.27,2.77,2.77,0,0,0,2-.81l0-1.23c0-.23-.16-.36-.43-.36h-.13v-.1H165v.1h-.13c-.27,0-.42.13-.42.36Z"/><path class="cls-1" d="M175.39,69.83v.09h-.13a.43.43,0,0,0-.45.39v3.13a2.33,2.33,0,0,1-4.63,0V70.32a.43.43,0,0,0-.45-.4h-.14v-.09h1.76v.09h-.13a.42.42,0,0,0-.45.4v3c0,1.21.65,1.94,1.72,1.94a1.72,1.72,0,0,0,1.89-1.83V70.32a.43.43,0,0,0-.45-.4h-.13v-.09Z"/><path class="cls-1" d="M182.58,69.83c1.17,0,1.89.57,1.89,1.5A1.55,1.55,0,0,1,183,72.86a2.5,2.5,0,0,1,.72.73s.43.58.81,1,.64.7,1.15.7v.1h-.29a2,2,0,0,1-1.72-.82c-.11-.13-.84-1.18-.91-1.27a1.34,1.34,0,0,0-.94-.63V72.6h.53c.51,0,1.1,0,1.37-.79a1.65,1.65,0,0,0,.06-.53,1.14,1.14,0,0,0-1.23-1.14c-.53,0-1,0-1.07,0V74.8a.51.51,0,0,0,.53.5h.12v.1h-1.89v-.1h.12a.51.51,0,0,0,.53-.49v-4.4a.51.51,0,0,0-.53-.49h-.12v-.09Z"/><path class="cls-1" d="M196,72.61a3.14,3.14,0,1,1-3.13-2.91A3,3,0,0,1,196,72.61Zm-.68,0a2.45,2.45,0,1,0-2.45,2.64A2.47,2.47,0,0,0,195.31,72.61Z"/><path class="cls-1" d="M203.84,73a1.29,1.29,0,0,1,.42,1,1.56,1.56,0,0,1-1.64,1.5,2.72,2.72,0,0,1-1.6-.44,2.61,2.61,0,0,1,.09-1.15h.11a1.15,1.15,0,0,0,1.3,1.31c.77,0,1.24-.42,1.24-1a.91.91,0,0,0-.34-.73l-1.86-1.43a1.3,1.3,0,0,1-.44-1,1.43,1.43,0,0,1,1.53-1.35,3.89,3.89,0,0,1,.92.09h.31v1h-.1c0-.52-.35-.83-1.07-.83a1,1,0,0,0-1.12.89.86.86,0,0,0,.37.73Z"/><rect class="cls-1" x="0.42" y="60.95" width="203.86" height="0.25"/><path class="cls-1" d="M114.6,7.2l-4.91,2.36,0-6.2-4.15,3.8-3.08-7L102.34,0h0L99.18,7.16,95,3.36l0,6.2L90.08,7.2l5,9.47,7.23-3.35,7.26,3.36Zm-.57.56-4.31,8.16,0-6.08ZM95,15.92l-4.3-8.16L95,9.84Zm14.45-12,0,5.75-2.33,1.11-1.5-3.39Zm-2.52,7L104.58,12l-2-1.79,2.89-2.64ZM102.26.8h0l.08-.19.09.2h0l2.88,6.53-3,2.72-3-2.72Zm-3,6.78,2.89,2.64-2,1.79L97.8,10.9Zm-4-3.65L99.07,7.4l-1.5,3.39L95.25,9.68Zm0,6L97.47,11l-2.26,5.12Zm2.45,1.17,2.21,1.06L95.55,16Zm-1.85,4.92,4.3-3.75,1.9.88Zm4.51-3.93,1.91-1.66h0l.08-.08.09.08h0l1.9,1.66-2,.93Zm2.29,1.06,1.9-.88,4.3,3.75Zm2.14-1L107,11.13,109.13,16ZM107.21,11,109.44,10l0,6.18Z"/></g></g></svg>