<?xml version="1.0" standalone="no"?>
<!DOCTYPE svg PUBLIC "-//W3C//DTD SVG 20010904//EN"
 "http://www.w3.org/TR/2001/REC-SVG-20010904/DTD/svg10.dtd">
<svg version="1.0" xmlns="http://www.w3.org/2000/svg"
 width="300.000000pt" height="300.000000pt" viewBox="0 0 300.000000 300.000000"
 preserveAspectRatio="xMidYMid meet">
<metadata>
Created by potrace 1.11, written by Peter Selinger 2001-2013
</metadata>
<g transform="translate(0.000000,300.000000) scale(0.100000,-0.100000)"
fill="#000000" stroke="none">
<path d="M1463 2463 c-16 -40 -202 -468 -233 -538 -10 -22 -41 -95 -70 -163
l-53 -122 -66 62 c-36 35 -95 90 -130 123 -35 33 -78 74 -96 90 -17 17 -66 63
-108 103 -42 39 -80 72 -84 72 -4 0 -8 -166 -7 -370 0 -203 0 -370 -1 -370 -1
0 -76 35 -166 79 -322 155 -420 201 -425 201 -3 0 26 -60 64 -132 38 -73 104
-200 147 -283 43 -82 90 -172 105 -200 15 -27 83 -158 150 -290 68 -132 123
-241 124 -242 1 -1 52 23 115 53 62 30 115 54 116 54 2 0 56 25 121 56 66 31
208 99 317 150 l198 93 177 -83 c97 -46 211 -99 252 -119 41 -19 157 -73 258
-120 l182 -86 21 42 c12 23 36 69 54 102 18 33 67 128 110 210 43 83 99 191
125 240 26 50 72 137 102 195 30 58 85 162 122 233 37 70 64 127 59 126 -4 0
-134 -62 -288 -138 -154 -76 -282 -134 -285 -130 -3 5 -6 171 -5 369 0 198 -4
360 -8 360 -4 0 -36 -27 -70 -59 -34 -33 -76 -72 -93 -88 -17 -15 -83 -76
-146 -135 -63 -59 -130 -120 -148 -137 l-34 -29 -67 156 c-37 87 -113 263
-169 392 -56 129 -109 252 -118 273 -8 20 -19 37 -24 37 -5 0 -16 -17 -25 -37z
m201 -442 c172 -399 175 -405 155 -422 -11 -9 -50 -46 -87 -81 -134 -126 -244
-223 -251 -223 -5 0 -57 45 -117 101 -60 55 -137 125 -171 155 -34 30 -62 60
-62 66 -1 13 351 815 355 810 1 -1 81 -184 178 -406z m666 -339 l0 -349 -132
-64 c-73 -35 -135 -65 -139 -67 -3 -2 -46 89 -94 201 l-87 204 83 79 c46 44
113 106 148 139 36 33 99 93 140 132 42 40 77 73 79 73 1 0 2 -157 2 -348z
m-1613 276 c92 -86 110 -103 220 -205 53 -48 110 -101 126 -116 l30 -28 -28
-67 c-16 -37 -40 -92 -53 -122 -14 -30 -40 -91 -59 -135 -19 -44 -35 -81 -37
-82 -2 -2 -54 22 -117 53 -63 31 -124 60 -136 65 -17 6 -22 18 -25 51 -5 65 2
648 7 648 3 0 35 -28 72 -62z m519 -483 c59 -55 134 -125 166 -155 l59 -55
-122 -105 c-67 -58 -125 -104 -128 -103 -27 7 -261 125 -261 131 -1 15 165
392 171 390 4 -2 56 -48 115 -103z m706 -92 l86 -198 -137 -66 -136 -66 -30
25 c-16 13 -62 54 -101 89 -40 35 -81 72 -93 82 -21 19 -21 19 101 132 67 63
143 133 168 157 24 23 47 42 50 42 3 0 44 -89 92 -197z m-1590 53 l254 -124
-2 -357 c-2 -197 -4 -359 -6 -361 -2 -1 -27 43 -56 99 -28 56 -87 170 -130
252 -43 83 -129 249 -191 370 -63 121 -118 226 -124 233 -5 6 -7 12 -5 12 3 0
120 -56 260 -124z m2470 3 c-33 -63 -90 -172 -127 -244 -37 -71 -91 -175 -120
-230 -29 -55 -83 -158 -120 -230 -37 -71 -70 -133 -74 -137 -4 -4 -6 155 -6
354 l0 361 250 122 c138 67 251 121 253 120 2 -2 -24 -54 -56 -116z m-1931
-291 c-5 -13 -41 -97 -81 -188 -39 -91 -92 -212 -117 -270 -24 -58 -48 -109
-52 -113 -4 -4 -6 93 -5 215 1 123 3 287 3 366 l1 142 130 -65 c121 -61 129
-66 121 -87z m1443 -227 c1 -198 -2 -357 -6 -353 -6 6 -218 500 -249 580 -8
22 -3 26 89 68 53 25 110 51 127 59 16 7 31 12 34 10 2 -3 4 -166 5 -364z
m-761 247 c45 -40 96 -86 114 -102 l33 -29 -111 -53 c-61 -30 -117 -54 -124
-54 -7 0 -63 24 -125 53 l-112 53 116 102 c64 56 119 102 122 102 4 0 43 -33
87 -72z m-393 -133 c8 -5 6 -12 -7 -24 -10 -9 -54 -47 -98 -86 -44 -38 -86
-77 -95 -85 -9 -8 -49 -44 -90 -80 -93 -82 -96 -85 -159 -145 l-52 -50 21 55
c11 30 29 73 39 95 10 22 58 131 106 242 l88 201 118 -58 c65 -32 123 -61 129
-65z m947 -78 c45 -105 100 -234 122 -284 22 -51 38 -93 35 -93 -3 0 -190 165
-387 343 -43 39 -88 79 -99 89 -20 17 -17 19 103 77 68 33 129 60 134 60 6 0
47 -86 92 -192z m-792 3 c60 -28 106 -52 104 -55 -3 -2 -88 -43 -189 -91 -102
-47 -228 -107 -280 -131 -52 -25 -120 -56 -150 -70 -30 -14 -64 -30 -75 -35
-22 -10 9 20 124 122 40 36 135 120 210 187 75 67 139 122 142 122 4 1 55 -22
114 -49z m466 7 c25 -23 79 -71 119 -107 41 -36 78 -70 84 -75 6 -6 62 -55
124 -109 61 -54 112 -100 112 -102 0 -3 -85 36 -295 135 -60 29 -144 68 -187
88 -42 19 -111 52 -155 73 l-78 37 105 51 c58 28 110 51 115 51 6 0 31 -19 56
-42z"/>
</g>
</svg>
