<svg xmlns="http://www.w3.org/2000/svg" viewBox="0 0 330 159.91">

    <defs>

        <style>.classsss-1,.classsss-2{fill:none;stroke:#afafb0;stroke-linecap:round;stroke-width:10px;}.classsss-1{stroke-linejoin:round;}.classsss-2{stroke-miterlimit:10;}</style>

    </defs>

    <title>Astivo 1</title>

    <g id="Camada_2" data-name="Camada 2">

        <g id="_ÎÓÈ_1" data-name="—ÎÓÈ_1">

            <polyline class="classsss-1" points="66.09 58.2 66.09 85.02 25.69 89.22"/>

            <path class="classsss-1" d="M38.15,137.14H9.7L5,120.27l4.7-3V83l13-32.08a14.13,14.13,0,0,1,13.1-8.83H75c10.34-25.33,26.49-27.43,26.49-27.43v93.77H325v28.75H304.82"/>

            <line class="classsss-1" x1="73.7" y1="137.14" x2="233.7" y2="137.14"/>

            <circle class="classsss-1" cx="55.93" cy="137.14" r="17.78"/>

            <circle class="classsss-1" cx="287.04" cy="137.14" r="17.78"/>

            <circle class="classsss-1" cx="251.48" cy="137.14" r="17.78"/>

            <path class="classsss-2" d="M245.55,5H226.47a34.74,34.74,0,0,0-19.28,5.84L173.71,33.15a13.81,13.81,0,0,1-5.58,2.18"/>

            <line class="classsss-2" x1="267.04" y1="5" x2="245.55" y2="5"/>

            <path class="classsss-2" d="M316.93,53.49v8.17a13.49,13.49,0,0,1-13.49,13.49h-5.63"/>

            <path class="classsss-2" d="M168.13,35.33l-21,3.29c-7,1.09-13.65,4.48-17.74,10.25a17.75,17.75,0,0,0-3.51,10.42v2.37a13.49,13.49,0,0,0,13.49,13.49h14"/>

            <line class="classsss-2" x1="262.72" y1="75.15" x2="188.45" y2="75.15"/>

            <line class="classsss-2" x1="312.56" y1="34.86" x2="168.13" y2="35.33"/>

            <path class="classsss-2" d="M262.72,75.15a17.55,17.55,0,0,0,35.09,0"/>

            <path class="classsss-2" d="M262.72,75.15a17.55,17.55,0,0,1,35.09,0"/>

            <path class="classsss-2" d="M153.37,75.15a17.54,17.54,0,0,0,35.08,0"/>

            <path class="classsss-2" d="M153.37,75.15a17.54,17.54,0,1,1,35.08,0"/>

            <path class="classsss-2" d="M316.93,53.49S315,5,267,5"/>

            <line class="classsss-2" x1="239.58" y1="5" x2="239.58" y2="34.86"/>

            <line class="classsss-2" x1="277.86" y1="7.35" x2="287.36" y2="34.86"/>

        </g>

    </g>

</svg>